PathFileType	4	(X/Y/Z)	RBDS020\RBDS020runT35.trc
DataRate	CameraRate	NumFrames	NumMarkers	Units	OrigDataRate	OrigDataStartFrame	OrigNumFrames
150.000000	150.000000	4	33	mm	150.000000	2250	4500
Frame#	Time	L.ASIS			L.Heel.Bottom			L.Heel.Lateral			L.Heel.Top			L.Iliac.Crest			L.MT1			L.MT5			L.PSIS			L.Shank.Bottom.Lateral			L.Shank.Bottom.Medial			L.Shank.Top.Lateral			L.Shank.Top.Medial			L.Thigh.Bottom.Lateral			L.Thigh.Bottom.Medial			L.Thigh.Top.Lateral			L.Thigh.Top.Medial			R.ASIS			R.ASY			R.Heel.Bottom			R.Heel.Lateral			R.Heel.Top			R.Iliac.Crest			R.MT1			R.MT5			R.PSIS			R.Shank.Bottom.Lateral			R.Shank.Bottom.Medial			R.Shank.Top.Lateral			R.Shank.Top.Medial			R.Thigh.Bottom.Lateral			R.Thigh.Bottom.Medial			R.Thigh.Top.Lateral			R.Thigh.Top.Medial			
		X1	Y1	Z1	X2	Y2	Z2	X3	Y3	Z3	X4	Y4	Z4	X5	Y5	Z5	X6	Y6	Z6	X7	Y7	Z7	X8	Y8	Z8	X9	Y9	Z9	X10	Y10	Z10	X11	Y11	Z11	X12	Y12	Z12	X13	Y13	Z13	X14	Y14	Z14	X15	Y15	Z15	X16	Y16	Z16	X17	Y17	Z17	X18	Y18	Z18	X19	Y19	Z19	X20	Y20	Z20	X21	Y21	Z21	X22	Y22	Z22	X23	Y23	Z23	X24	Y24	Z24	X25	Y25	Z25	X26	Y26	Z26	X27	Y27	Z27	X28	Y28	Z28	X29	Y29	Z29	X30	Y30	Z30	X31	Y31	Z31	X32	Y32	Z32	X33	Y33	Z33	

2251	15	2136.413663526791	987.8019630315126	923.1150080226301	1889.721999365101	29.751433325373	1034.906423320227	1908.349909002966	52.38991792818948	989.100957388574	1900.317078949289	77.17806403313385	1034.84961237271	2068.014659447405	1020.179799667129	892.7747682145256	2112.131190011158	47.95284370382209	1036.681951834739	2060.972154324215	41.23252058522927	936.9728726520025	1978.228461541909	1011.36482541109	1005.549083897374	2003.557267687819	154.8656422758873	957.9297877432708	1965.128823125633	179.6359497711374	990.0343980883839	2029.342615302212	227.7609320384134	934.9988892838777	1994.027219626205	252.2151405351578	967.6534076485353	2119.358342831871	639.3919672645015	871.8246739935239	2057.353105408662	623.6826855242662	906.4714988348794	2084.779977425068	742.9207011864343	858.9501850151211	2028.242733248933	728.8871327676313	896.5928362712755	2148.944357033778	964.0325142791179	1158.246956843947	1868.081016108173	229.5771848356877	1132.217157485568	1758.99659059447	392.3753449279216	1118.085549129296	1785.89770837281	375.6354131608772	1162.214576023354	1801.297889227872	397.0223238209617	1115.279145310603	2093.673575512336	1005.009734036113	1194.211258042933	1833.787896786948	193.5649631508587	1089.42765237529	1825.134149082784	218.1649803716655	1196.554221096067	1985.77717206591	1001.949610369966	1100.937472629148	1933.015043479318	373.7189772000696	1172.810434259213	1922.22222398748	414.0249308581853	1143.080321027713	2012.598724307823	403.4502177858943	1181.120202836459	1996.074366403228	445.523231862721	1152.630350211099	2174.896018176218	591.9693864499246	1192.991028363628	2122.756020696169	567.540265654064	1150.579186090356	2120.834721506526	688.2135562145527	1202.616402685716	2071.119292778536	664.0193218221996	1162.180092579904	
2252	15.00666666666667	2135.826580882627	988.3440333554282	922.5230738788815	1865.999794482008	30.90259475509952	1034.785712831929	1884.675125677028	53.33453692595648	988.9168469763237	1876.7594348844	78.30530731335303	1034.563805493162	2068.197970718019	1021.802963027928	892.6284070163201	2088.378688899222	47.9507511093959	1036.543097402214	2037.103865478632	41.04971871596906	937.0216873548915	1978.368525396096	1013.577493495567	1004.990007951554	1981.221674348419	155.6036785020035	957.7537023390092	1943.259317507102	180.9254851223542	990.0444244151911	2008.170532042055	228.0023723548532	935.0246179379985	1973.258263500648	253.0158477378474	967.7199084130232	2108.82573986964	638.4650833630194	872.3315089411755	2046.269334597919	624.9673479746328	906.9552247187755	2077.896280945326	743.1376603619533	859.4515681497904	2020.853935136304	731.1515033277124	897.1676712650093	2148.650806923271	967.1245803947671	1157.344851976022	1891.369094001452	222.5676080743868	1131.296625497303	1774.361495873294	380.0060437461203	1120.999828046744	1802.700114205893	363.8837563111029	1164.453645423563	1816.355420925933	386.7460155800081	1117.590660071392	2093.17278393594	1008.082192513746	1194.142280798974	1858.196102905406	185.4277096183222	1088.600252378953	1849.979559738183	208.086002760878	1196.10433277844	1985.705007062219	1004.915239251946	1100.537895832693	1950.10774124505	368.6246700550155	1173.166104163532	1937.340876163361	408.7059822932791	1143.867318161522	2028.517246087382	401.4417524056757	1180.799484496589	2009.993829671286	443.0384530088255	1152.849684979603	2183.976890410769	597.6196485439074	1191.744172961663	2132.336537756656	571.5501109284018	1149.718835208666	2126.904242713321	691.9747937167471	1202.152694710396	2077.397300163221	665.9819991315109	1162.286199561252	
2253	15.01333333333333	2135.5505019293	989.2106750825001	921.8735535981707	1842.262096725917	32.7717327994836	1034.624140629935	1861.08290950715	54.87743565013971	988.678806277818	1853.37850272536	80.10919684898592	1034.185983373534	2069.029265744884	1023.979717846486	892.4542431386964	2064.619847780293	47.83911400718458	1036.501168552312	2013.231422743805	40.85766768293271	937.1003830105958	1978.852899513107	1016.235658703482	1004.310714421819	1958.898598271498	157.0202485590926	957.5497442651667	1921.347220899775	182.7835359223535	990.0428150715214	1986.827105663073	228.9813179198973	935.0311207283854	1952.285599415908	254.448668003467	967.8130017847865	2098.060895707144	638.2157898196712	872.9413080653152	2035.023329227419	627.0407576952282	907.5598963122127	2070.962172886802	743.9314067993977	860.0275562856544	2013.458180017574	734.1026787022309	897.7995965399987	2148.762156386102	970.8734162002615	1156.242551219294	1915.135203300232	215.1939083888979	1130.368051648909	1790.066838542525	366.3541122351656	1123.38926131266	1819.701608050204	351.1032251576673	1166.254648437281	1831.644498113523	375.3416209092983	1119.50779361981	2093.456966970425	1012.093127407347	1193.95388311097	1883.435037935372	176.7989925946037	1087.742423810162	1875.314142936941	197.6803240909644	1195.533876934836	1986.021693852725	1008.513533270763	1100.046704461059	1967.057570020391	363.1156774977194	1173.396761294126	1952.199900210918	402.7888243053092	1144.473652278104	2043.980941242862	399.3245831391449	1180.459744919824	2023.373454511953	440.2217414317861	1152.972628640962	2192.571145951337	603.9989213680332	1190.653076874846	2141.503617356998	576.4231195150915	1148.916559868404	2132.761789425066	696.4563548835246	1201.864392256464	2083.499067948022	668.7871671244682	1162.517127892716	
2254	15.02	2135.593217708211	990.3996993477436	921.1810938606129	1818.605344578193	35.53513607664132	1034.413298219785	1837.677108674543	57.17165421076886	988.3740056833959	1830.293721752226	82.74861004827139	1033.703106421696	2070.463950270344	1026.614805124929	892.2820731609618	2040.893782769017	47.6495918703879	1036.540763222918	1989.40663507104	40.71494191570422	937.1881752406234	1979.644353519985	1019.258108695523	1003.567816242322	1936.713314968778	159.2367144214629	957.3053288802023	1899.527299408168	185.3415378112637	990.0191224677201	1965.470031093089	230.8262087273622	935.0143641801407	1931.277445617258	256.6464264821992	967.9331429387649	2087.202598670799	638.7269155447906	873.6456256491148	2023.786582714618	629.966691182407	908.2975983705917	2064.082543368104	745.3533035623857	860.667569857554	2006.187736580943	737.7724652905359	898.4861230502723	2149.230625376388	975.1862819460401	1155.004470488421	1939.401586450761	207.5392371040498	1129.453643178723	1806.231079737333	351.4965552511782	1125.207604153465	1837.002068012793	337.3747948070857	1167.594534778559	1847.259938379915	362.8542944963195	1120.991386845519	2094.389347517222	1016.884840346111	1193.676216596473	1909.533523925685	167.8033211876648	1086.875717043983	1901.167657336643	187.0727129384141	1194.87669357701	1986.681707555648	1012.609015142594	1099.507537459096	1983.904753895091	357.1917451149686	1173.479743378585	1966.872164100223	396.2679562110412	1144.883532132148	2059.005925360489	397.0434012630734	1180.099837291745	2036.258847231493	437.0184903491621	1152.999204439034	2200.66919792768	610.9774301357463	1189.755207560844	2150.214080769314	582.0259447745003	1148.224813298613	2138.398209156163	701.5647141224246	1201.762421631612	2089.40542607494	672.3594501699212	1162.892225170832	
